<?xml version="1.0" standalone="no"?>
<!DOCTYPE svg PUBLIC "-//W3C//DTD SVG 20010904//EN"
 "http://www.w3.org/TR/2001/REC-SVG-20010904/DTD/svg10.dtd">
<svg version="1.0" xmlns="http://www.w3.org/2000/svg"
 width="512.000000pt" height="512.000000pt" viewBox="0 0 512.000000 512.000000"
 preserveAspectRatio="xMidYMid meet">
<metadata>
Created by potrace 1.14, written by Peter Selinger 2001-2017
</metadata>
<g transform="translate(0.000000,512.000000) scale(0.100000,-0.100000)"
fill="#000000" stroke="none">
<path d="M0 2560 l0 -2560 2560 0 2560 0 0 2560 0 2560 -2560 0 -2560 0 0
-2560z m1567 940 c210 -29 343 -114 416 -268 30 -63 32 -74 32 -177 -1 -141
-22 -200 -104 -287 l-57 -61 79 -40 c102 -51 195 -140 236 -226 l29 -62 12 38
c27 85 86 179 155 249 118 118 254 174 430 174 253 0 441 -120 530 -336 l25
-59 0 528 0 527 160 0 160 0 0 -930 0 -930 -160 0 -160 0 0 245 0 245 -421 0
-421 0 7 -32 c12 -62 59 -141 103 -175 109 -83 303 -85 446 -5 l53 31 69 -84
c38 -46 70 -88 72 -94 2 -5 -18 -26 -45 -45 -180 -132 -514 -155 -728 -51
-127 62 -211 155 -262 294 l-25 69 -40 -79 c-53 -107 -133 -186 -241 -239
-148 -72 -156 -73 -594 -78 l-393 -3 0 935 0 936 279 0 c154 0 315 -5 358 -10z
m2623 -930 l0 -930 -155 0 -155 0 0 930 0 930 155 0 155 0 0 -930z"/>
<path d="M1260 3016 l0 -246 110 0 c169 0 242 35 289 140 26 58 27 150 2 205
-41 91 -121 129 -298 141 l-103 7 0 -247z"/>
<path d="M2731 2589 c-62 -12 -126 -53 -159 -102 -26 -38 -52 -97 -52 -118 0
-5 119 -9 265 -9 l265 0 0 23 c0 37 -49 125 -84 152 -65 50 -154 70 -235 54z"/>
<path d="M1260 2205 l0 -308 178 5 c204 6 264 22 338 90 64 59 88 116 88 213
1 104 -32 179 -103 230 -80 59 -116 67 -318 73 l-183 4 0 -307z"/>
</g>
</svg>
